HIERARCHY
ROOT Hips
{
	OFFSET 0.000000 0.000000 0.000000
	CHANNELS 6 Xposition Yposition Zposition Xrotation Yrotation Zrotation
	JOINT LeftUpLeg_virtual
	{
		OFFSET 0.000000 0.000000 0.000000
		CHANNELS 3 Xrotation Yrotation Zrotation
		JOINT LeftUpLeg
		{
			OFFSET 15.427100 -6.655098 0.678600
			CHANNELS 3 Xrotation Yrotation Zrotation
			JOINT LeftLeg
			{
				OFFSET 4.081073 -39.591068 13.024000
				CHANNELS 3 Xrotation Yrotation Zrotation
				JOINT LeftFoot
				{
					OFFSET -4.081074 -37.707932 -15.979700
					CHANNELS 3 Xrotation Yrotation Zrotation
					JOINT LeftToeBase
					{
						OFFSET 5.346399 -15.068900 20.645000
						CHANNELS 3 Xrotation Yrotation Zrotation
						JOINT LeftToe_End
						{
							OFFSET 2.754700 0.931300 11.300900
							CHANNELS 3 Xrotation Yrotation Zrotation
							End Site
							{
								OFFSET 0 0 0
							}
						}
					}
				}
			}
		}
	}
	JOINT RightUpLeg_virtual
	{
		OFFSET 0.000000 0.000000 0.000000
		CHANNELS 3 Xrotation Yrotation Zrotation
		JOINT RightUpLeg
		{
			OFFSET -15.569500 -6.655098 0.678600
			CHANNELS 3 Xrotation Yrotation Zrotation
			JOINT RightLeg
			{
				OFFSET -4.081825 -39.591045 13.023800
				CHANNELS 3 Xrotation Yrotation Zrotation
				JOINT RightFoot
				{
					OFFSET 4.081824 -37.707954 -15.979600
					CHANNELS 3 Xrotation Yrotation Zrotation
					JOINT RightToeBase
					{
						OFFSET -5.346400 -15.068900 20.645000
						CHANNELS 3 Xrotation Yrotation Zrotation
						JOINT RightToe_End
						{
							OFFSET -2.754700 0.931300 11.300900
							CHANNELS 3 Xrotation Yrotation Zrotation
							End Site
							{
								OFFSET 0 0 0
							}
						}
					}
				}
			}
		}
	}
	JOINT Spine_virtual
	{
		OFFSET 0.000000 0.000000 0.000000
		CHANNELS 3 Xrotation Yrotation Zrotation
		JOINT Spine
		{
			OFFSET -0.279200 12.230698 -2.892100
			CHANNELS 3 Xrotation Yrotation Zrotation
			JOINT Spine1
			{
				OFFSET -0.232667 10.192268 -1.242267
				CHANNELS 3 Xrotation Yrotation Zrotation
				JOINT Spine1_split
				{
					OFFSET -0.232667 10.192268 -1.242267
					CHANNELS 3 Xrotation Yrotation Zrotation
					JOINT Spine2
					{
						OFFSET -0.232667 10.192268 -1.242267
						CHANNELS 3 Xrotation Yrotation Zrotation
						JOINT Neck_virtual
						{
							OFFSET 0.000000 0.000000 0.000000
							CHANNELS 3 Xrotation Yrotation Zrotation
							JOINT Neck
							{
								OFFSET -0.418800 17.814194 8.416900
								CHANNELS 3 Xrotation Yrotation Zrotation
								JOINT Head
								{
									OFFSET 0.000000 7.031097 3.806800
									CHANNELS 3 Xrotation Yrotation Zrotation
									JOINT HeadTop_End
									{
										OFFSET 0.000000 24.646606 12.978600
										CHANNELS 3 Xrotation Yrotation Zrotation
										End Site
										{
											OFFSET 0 0 0
										}
									}
								}
							}
						}
						JOINT LeftShoulder_virtual
						{
							OFFSET 0.000000 0.000000 0.000000
							CHANNELS 3 Xrotation Yrotation Zrotation
							JOINT LeftShoulder
							{
								OFFSET 8.476499 7.247704 -3.868750
								CHANNELS 3 Xrotation Yrotation Zrotation
								JOINT LeftShoulder_split
								{
									OFFSET 8.476499 7.247704 -3.868750
									CHANNELS 3 Xrotation Yrotation Zrotation
									JOINT LeftArm
									{
										OFFSET 9.308998 -2.777710 0.208600
										CHANNELS 3 Xrotation Yrotation Zrotation
										JOINT LeftForeArm
										{
											OFFSET 29.972298 0.000000 0.000000
											CHANNELS 3 Xrotation Yrotation Zrotation
											JOINT LeftHand
											{
												OFFSET 26.026505 0.000000 0.000000
												CHANNELS 3 Xrotation Yrotation Zrotation
												End Site
												{
													OFFSET 0 0 0
												}
											}
										}
									}
								}
							}
						}
						JOINT RightShoulder_virtual
						{
							OFFSET 0.000000 0.000000 0.000000
							CHANNELS 3 Xrotation Yrotation Zrotation
							JOINT RightShoulder
							{
								OFFSET -7.570500 7.247704 -3.868750
								CHANNELS 3 Xrotation Yrotation Zrotation
								JOINT RightShoulder_split
								{
									OFFSET -7.570500 7.247704 -3.868750
									CHANNELS 3 Xrotation Yrotation Zrotation
									JOINT RightArm
									{
										OFFSET -9.308998 -2.777710 0.208500
										CHANNELS 3 Xrotation Yrotation Zrotation
										JOINT RightForeArm
										{
											OFFSET -29.972300 0.000000 0.000000
											CHANNELS 3 Xrotation Yrotation Zrotation
											JOINT RightHand
											{
												OFFSET -26.026505 0.000000 0.000000
												CHANNELS 3 Xrotation Yrotation Zrotation
												End Site
												{
													OFFSET 0 0 0
												}
											}
										}
									}
								}
							}
						}
					}
				}
			}
		}
	}
}
MOTION
Frames: 11
Frame Time: 0.03333333
3.738323 46.745392 -3.867352 0.000000 0.000000 0.000000 178.766978 -8.230912 171.097605 -65.676278 -31.009260 34.774112 107.014837 -20.777697 -8.131999 -29.954939 2.989529 -10.295603 -18.735694 -0.576779 0.466061 0.000000 0.000000 0.000000 178.819339 -6.002713 171.342221 -32.304254 5.958646 -36.292886 91.675154 18.935859 5.218305 -44.505885 -10.250601 19.133320 -3.714582 -1.012063 1.171284 0.000000 0.000000 0.000000 179.234382 -6.991389 170.279444 7.696641 4.528846 -2.637228 7.586912 7.068562 -3.908252 0.535287 -3.041142 0.657704 0.000000 0.000000 0.000000 7.760380 6.546807 -3.774159 -2.663834 23.606061 6.994600 5.578750 33.641578 -24.304851 0.000000 0.000000 0.000000 8.409548 6.912350 -4.006025 1.027230 -13.614165 -10.340782 -3.252578 -1.579729 -3.710241 3.434926 2.469415 -31.749974 36.431024 -41.113238 1.052155 0.000000 0.000000 0.000000 7.919376 6.819664 -4.377635 5.115357 -18.244579 13.963194 2.353731 3.277088 -1.869497 13.037478 -13.726223 60.717172 34.417709 50.581936 -8.559532 0.000000 0.000000 0.000000 
3.734510 46.751198 -3.853844 0.000000 0.000000 0.000000 178.760394 -8.232707 171.103574 -65.680820 -31.015076 34.788172 107.013881 -20.774749 -8.117715 -29.918660 2.978015 -10.267456 -18.727218 -0.572061 0.461254 0.000000 0.000000 0.000000 178.813287 -6.020373 171.354106 -32.305381 5.949571 -36.288686 91.661719 18.932374 5.215440 -44.514119 -10.249922 19.128845 -3.709151 -1.007923 1.171048 0.000000 0.000000 0.000000 179.221582 -6.996661 170.293118 7.689303 4.525793 -2.626831 7.576622 7.066864 -3.898761 0.513739 -3.042053 0.660494 0.000000 0.000000 0.000000 7.761924 6.547443 -3.766054 -2.616469 23.620766 6.969474 5.564726 33.648462 -24.292065 0.000000 0.000000 0.000000 8.407134 6.910862 -3.996487 1.029110 -13.629028 -10.349362 -3.262211 -1.599025 -3.717762 3.404077 2.501894 -31.745101 36.423746 -41.078100 1.038533 0.000000 0.000000 0.000000 7.907500 6.816801 -4.368612 5.119746 -18.240199 13.951648 2.362809 3.254868 -1.869749 13.020962 -13.723961 60.715819 34.403482 50.553843 -8.556272 0.000000 0.000000 0.000000 
3.725791 46.759605 -3.845421 0.000000 0.000000 0.000000 178.739043 -8.255808 171.102604 -65.719465 -31.017204 34.780525 107.003717 -20.764226 -8.101631 -29.860050 2.962988 -10.238055 -18.703804 -0.564123 0.451482 0.000000 0.000000 0.000000 178.793302 -6.054441 171.361837 -32.304100 5.931731 -36.297452 91.660538 18.933552 5.212918 -44.513644 -10.248505 19.149684 -3.709940 -1.005417 1.164784 0.000000 0.000000 0.000000 179.197471 -7.021161 170.301451 7.680005 4.514930 -2.613431 7.564679 7.068603 -3.882599 0.515028 -3.035168 0.665197 0.000000 0.000000 0.000000 7.753657 6.552834 -3.751579 -2.526615 23.626200 6.928129 5.590016 33.657714 -24.330997 0.000000 0.000000 0.000000 8.400551 6.912798 -3.980981 1.026474 -13.668778 -10.372323 -3.269275 -1.602408 -3.725885 3.370707 2.556453 -31.746064 36.408706 -41.049454 1.023701 0.000000 0.000000 0.000000 7.890272 6.819977 -4.351434 5.129501 -18.240225 13.915312 2.377409 3.244824 -1.872455 12.983951 -13.686961 60.741248 34.376089 50.459358 -8.545775 0.000000 0.000000 0.000000 
3.716451 46.769272 -3.842449 0.000000 0.000000 0.000000 178.706736 -8.299634 171.094599 -65.795178 -31.012740 34.750425 106.986567 -20.744700 -8.086204 -29.795990 2.948018 -10.207015 -18.643502 -0.552185 0.433203 0.000000 0.000000 0.000000 178.762156 -6.100846 171.362534 -32.288165 5.908594 -36.314521 91.669512 18.937309 5.208991 -44.514457 -10.251537 19.193296 -3.712110 -1.004297 1.154298 0.000000 0.000000 0.000000 179.164618 -7.063983 170.300863 7.672945 4.499115 -2.598875 7.555049 7.076115 -3.861746 0.533393 -3.027102 0.665330 0.000000 0.000000 0.000000 7.739570 6.564333 -3.732945 -2.405457 23.619931 6.883311 5.660296 33.675472 -24.426145 0.000000 0.000000 0.000000 8.393357 6.919093 -3.961448 1.019597 -13.729452 -10.407210 -3.274376 -1.592588 -3.726631 3.330955 2.623047 -31.750343 36.387751 -41.034889 1.010755 0.000000 0.000000 0.000000 7.873358 6.830596 -4.328681 5.143297 -18.246499 13.856919 2.393136 3.246028 -1.886470 12.927134 -13.615846 60.794510 34.333718 50.301645 -8.527404 0.000000 0.000000 0.000000 
3.706415 46.778191 -3.841667 0.000000 0.000000 0.000000 178.667722 -8.361175 171.081622 -65.911496 -31.008594 34.694858 106.967285 -20.719666 -8.066981 -29.727036 2.931542 -10.186594 -18.541278 -0.537425 0.409849 0.000000 0.000000 0.000000 178.723975 -6.157482 171.356196 -32.245074 5.879522 -36.330312 91.680010 18.938808 5.204372 -44.529855 -10.265469 19.244502 -3.706854 -1.005089 1.142864 0.000000 0.000000 0.000000 179.126465 -7.123814 170.292298 7.670210 4.483171 -2.584756 7.550988 7.090050 -3.838031 0.548673 -3.019450 0.666851 0.000000 0.000000 0.000000 7.725630 6.582362 -3.712852 -2.266172 23.604736 6.850914 5.780292 33.706277 -24.578687 0.000000 0.000000 0.000000 8.390754 6.930444 -3.939639 1.010471 -13.802451 -10.449241 -3.269813 -1.579879 -3.719095 3.282190 2.693998 -31.755277 36.364644 -41.044816 1.004804 0.000000 0.000000 0.000000 7.862483 6.848644 -4.303546 5.159419 -18.265920 13.779470 2.398950 3.247321 -1.906880 12.853309 -13.512757 60.868897 34.279702 50.094674 -8.505688 0.000000 0.000000 0.000000 
3.697424 46.783401 -3.835846 0.000000 0.000000 0.000000 178.626973 -8.434088 171.064410 -66.063386 -31.014291 34.615180 106.947840 -20.695886 -8.039012 -29.644329 2.907331 -10.186577 -18.426614 -0.525187 0.395750 0.000000 0.000000 0.000000 178.682680 -6.224635 171.340937 -32.167879 5.845397 -36.338338 91.682859 18.935834 5.200409 -44.569788 -10.295198 19.291463 -3.692226 -1.007367 1.133196 0.000000 0.000000 0.000000 179.086617 -7.194968 170.275851 7.673598 4.471615 -2.572371 7.555251 7.110845 -3.813768 0.553119 -3.010684 0.676461 0.000000 0.000000 0.000000 7.717520 6.605926 -3.693747 -2.122873 23.582246 6.842851 5.950588 33.751769 -24.785368 0.000000 0.000000 0.000000 8.398719 6.946400 -3.917019 1.001178 -13.877209 -10.492684 -3.259129 -1.565673 -3.707337 3.216717 2.756521 -31.757193 36.338939 -41.086296 1.008959 0.000000 0.000000 0.000000 7.862858 6.872299 -4.278792 5.175929 -18.304343 13.687221 2.402544 3.246622 -1.935569 12.767424 -13.381784 60.960982 34.220938 49.856891 -8.488329 0.000000 0.000000 0.000000 
3.692852 46.787613 -3.827385 0.000000 0.000000 0.000000 178.588027 -8.516230 171.042881 -66.240206 -31.036188 34.518584 106.929309 -20.674149 -8.004624 -29.544796 2.872509 -10.198354 -18.321721 -0.518069 0.394279 0.000000 0.000000 0.000000 178.641945 -6.301603 171.317031 -32.057889 5.805702 -36.331607 91.671145 18.924421 5.198983 -44.630867 -10.342700 19.327467 -3.679159 -1.011019 1.127602 0.000000 0.000000 0.000000 179.047440 -7.273265 170.254254 7.681763 4.467592 -2.562423 7.570478 7.136665 -3.789623 0.548744 -2.990141 0.687044 0.000000 0.000000 0.000000 7.719807 6.632956 -3.676634 -1.987211 23.555156 6.868898 6.163935 33.810256 -25.034211 0.000000 0.000000 0.000000 8.420279 6.965340 -3.895019 0.994188 -13.945225 -10.535584 -3.246362 -1.553571 -3.694985 3.127692 2.801305 -31.750128 36.313353 -41.162005 1.027559 0.000000 0.000000 0.000000 7.877359 6.898838 -4.256410 5.192703 -18.364673 13.583222 2.410291 3.252138 -1.965428 12.681242 -13.227421 61.072922 34.161983 49.599095 -8.477884 0.000000 0.000000 0.000000 
3.692316 46.791767 -3.815746 0.000000 0.000000 0.000000 178.553357 -8.606428 171.014399 -66.432127 -31.076579 34.409342 106.910103 -20.655059 -7.967883 -29.426494 2.827419 -10.216833 -18.228284 -0.515229 0.398900 0.000000 0.000000 0.000000 178.606810 -6.386117 171.289028 -31.920097 5.761951 -36.312940 91.644630 18.906401 5.200303 -44.704940 -10.405538 19.352907 -3.676339 -1.016330 1.126235 0.000000 0.000000 0.000000 179.013972 -7.352362 170.230690 7.692276 4.472348 -2.555319 7.597764 7.164249 -3.766043 0.549206 -2.964319 0.689525 0.000000 0.000000 0.000000 7.736051 6.660823 -3.661519 -1.869210 23.526880 6.932011 6.406156 33.878783 -25.308496 0.000000 0.000000 0.000000 8.456672 6.984859 -3.874421 0.991114 -14.001483 -10.575127 -3.228893 -1.538792 -3.691149 3.017058 2.820625 -31.726212 36.286312 -41.267631 1.060250 0.000000 0.000000 0.000000 7.906261 6.925416 -4.236675 5.210170 -18.446417 13.474415 2.417698 3.264863 -1.989109 12.603869 -13.054226 61.210530 34.098896 49.313102 -8.466707 0.000000 0.000000 0.000000 
3.693627 46.796913 -3.800323 0.000000 0.000000 0.000000 178.525449 -8.699043 170.980522 -66.624657 -31.131541 34.294431 106.888130 -20.637499 -7.933312 -29.295320 2.778555 -10.233889 -18.137929 -0.514301 0.400895 0.000000 0.000000 0.000000 178.579039 -6.474837 171.260245 -31.765735 5.716733 -36.290943 91.604831 18.887076 5.204711 -44.782992 -10.474698 19.374026 -3.679391 -1.022468 1.128489 0.000000 0.000000 0.000000 178.988741 -7.431218 170.206333 7.704520 4.484322 -2.550777 7.636082 7.191441 -3.743890 0.551003 -2.938440 0.689424 0.000000 0.000000 0.000000 7.766305 6.686805 -3.648110 -1.778085 23.497519 7.029994 6.659714 33.951521 -25.588523 0.000000 0.000000 0.000000 8.505448 7.002847 -3.856303 0.991960 -14.043870 -10.611620 -3.207902 -1.526399 -3.694654 2.892294 2.809438 -31.681078 36.251308 -41.381937 1.098402 0.000000 0.000000 0.000000 7.948553 6.950220 -4.219993 5.227529 -18.545343 13.366982 2.424156 3.293085 -2.008791 12.534730 -12.873833 61.374468 34.027125 48.992715 -8.446566 0.000000 0.000000 0.000000 
3.695408 46.803467 -3.784035 0.000000 0.000000 0.000000 178.505478 -8.791671 170.945510 -66.808116 -31.193617 34.178301 106.864662 -20.620418 -7.904168 -29.161964 2.737013 -10.247070 -18.035630 -0.511791 0.392147 0.000000 0.000000 0.000000 178.558821 -6.564723 171.232638 -31.609846 5.672823 -36.275404 91.556609 18.872332 5.213049 -44.855806 -10.541356 19.395657 -3.684228 -1.028799 1.132521 0.000000 0.000000 0.000000 178.971597 -7.508720 170.183029 7.717445 4.500614 -2.548678 7.683593 7.216471 -3.724068 0.545892 -2.908166 0.685828 0.000000 0.000000 0.000000 7.808560 6.710476 -3.636676 -1.716285 23.467398 7.153934 6.905092 34.020127 -25.857073 0.000000 0.000000 0.000000 8.562887 7.019025 -3.841330 0.994795 -14.073194 -10.646201 -3.187250 -1.513603 -3.696124 2.773923 2.771993 -31.616481 36.205429 -41.490131 1.135607 0.000000 0.000000 0.000000 8.001149 6.972465 -4.206955 5.243972 -18.655142 13.264314 2.426258 3.330691 -2.020866 12.462772 -12.699128 61.557312 33.944742 48.646120 -8.414796 0.000000 0.000000 0.000000 
3.696070 46.809196 -3.766716 0.000000 0.000000 0.000000 178.492514 -8.880739 170.915170 -66.970148 -31.256667 34.066241 106.840619 -20.603030 -7.879954 -29.037234 2.707745 -10.256212 -17.929667 -0.508300 0.378406 0.000000 0.000000 0.000000 178.544983 -6.651178 171.208568 -31.463673 5.633649 -36.272847 91.506332 18.865580 5.225236 -44.916127 -10.598457 19.422522 -3.688314 -1.034783 1.136205 0.000000 0.000000 0.000000 178.961734 -7.583292 170.162374 7.730732 4.518033 -2.549255 7.736698 7.238748 -3.707500 0.544748 -2.877771 0.681045 0.000000 0.000000 0.000000 7.857585 6.731326 -3.627106 -1.685597 23.437400 7.288973 7.126324 34.077255 -26.098004 0.000000 0.000000 0.000000 8.624538 7.033417 -3.829166 0.997637 -14.093492 -10.677188 -3.167090 -1.503447 -3.690443 2.672436 2.718076 -31.540325 36.146679 -41.584705 1.166866 0.000000 0.000000 0.000000 8.059935 6.992457 -4.197744 5.259033 -18.767531 13.170109 2.425544 3.370825 -2.029795 12.376010 -12.539469 61.743927 33.855052 48.291787 -8.375033 0.000000 0.000000 0.000000 
